<svg width="364" height="327" viewBox="0 0 364 327" fill="none" xmlns="http://www.w3.org/2000/svg">
<path d="M71.6699 277.817H83.3142V326L71.6699 321.333V277.817Z" fill="#2E3642"/>
<path d="M94.8848 277.817H83.3133V326L94.8848 321.333V277.817Z" fill="#19252D"/>
<path d="M79.8913 125.928L79.8951 125.917C80.2613 124.932 80.625 123.954 81 123C81.375 123.954 81.7387 124.932 82.1049 125.917L82.1087 125.928C83.3369 129.23 84.5963 132.613 86.3914 135.431C90.0363 141.15 94.9206 146.325 99.5596 150.77C104.572 155.574 110.3 158.894 116.322 161.178C117.029 161.447 122.098 163.905 122.098 163.905C122.098 163.905 120.198 165.963 118.797 166.927C116.53 168.1 109.823 169.89 101.137 167.677C102.501 169.115 103.897 170.197 105.538 171.086C108.558 172.724 112.482 173.313 115.771 173.313C116.703 173.313 115.029 173.625 113.506 173.908C112.872 174.026 112.266 174.139 111.883 174.222C109.883 174.66 107.645 174.949 105.611 174.949C105.556 174.949 105.482 174.943 105.398 174.936L105.396 174.936C104.993 174.903 104.397 174.853 104.841 175.404C108.064 179.397 113.018 182.734 117.055 185.13C121.243 187.616 125.783 188.142 130.315 188.653C133.172 188.975 142.476 188.451 142.476 188.451C142.476 188.451 141.439 191.222 138.933 193.152C133.447 197.378 127.255 200.392 120.796 201.219C118.791 201.477 114.158 201.038 114.158 201.038C115.924 202.271 120.126 203.521 122.007 203.992C122.335 204.063 122.71 204.087 123.035 204.108L123.038 204.109C123.861 204.161 124.36 204.194 122.96 204.901C120.766 206.01 118.336 206.629 115.99 207.226L114.781 207.537C113.408 207.896 112.641 208.067 111.37 207.673C109.854 207.895 104.693 207.885 100.772 206.715C102.331 208.32 103.903 209.867 105.453 211.352C112.058 217.68 119.605 222.054 127.538 225.062C128.472 225.416 135.15 228.654 135.15 228.654C135.15 228.654 132.646 231.365 130.8 232.635C127.813 234.179 118.977 236.538 107.531 233.623C109.328 235.517 111.169 236.942 113.331 238.113C117.311 240.271 122.48 241.047 126.814 241.047C128.041 241.047 125.831 241.458 123.824 241.831L123.814 241.833L123.805 241.834C122.979 241.988 122.188 242.135 121.691 242.244C119.055 242.82 116.109 243.202 113.427 243.202C113.353 243.202 113.254 243.194 113.144 243.185C112.613 243.14 111.827 243.075 112.413 243.801C116.658 249.06 123.185 253.456 128.505 256.612C134.023 259.887 140.004 260.58 145.975 261.252C149.74 261.676 162 260.986 162 260.986C162 260.986 160.632 264.637 157.331 267.179C150.104 272.745 141.944 276.715 133.434 277.805C130.792 278.144 124.688 277.566 124.688 277.566C127.016 279.191 132.552 280.837 135.029 281.457C135.463 281.551 135.958 281.583 136.388 281.61L136.389 281.61L136.389 281.611C137.471 281.681 138.128 281.723 136.285 282.655C133.393 284.117 130.187 284.932 127.094 285.72C126.561 285.855 126.033 285.99 125.509 286.127C123.701 286.6 122.69 286.825 121.014 286.307C118.858 286.621 102.254 286.581 93.2639 284.646L72.4433 283.091C63.5902 284.177 40.6844 286.865 36.4914 286.127C31.2707 285.208 29.1056 284.369 25.7149 282.655C23.8716 281.723 24.5287 281.681 25.6107 281.611L25.6115 281.61L25.6119 281.61C26.0416 281.583 26.5372 281.551 26.9705 281.457C29.4482 280.837 34.9841 279.191 37.3123 277.566C37.3123 277.566 31.2084 278.144 28.5663 277.805C20.0557 276.715 11.8964 272.745 4.66886 267.179C1.36777 264.637 0 260.986 0 260.986C0 260.986 12.2601 261.676 16.0246 261.252C21.9965 260.58 27.977 259.887 33.4955 256.612C38.8146 253.456 45.342 249.06 49.5873 243.801C50.1728 243.075 49.3868 243.14 48.8561 243.185C48.7465 243.194 48.6468 243.202 48.5733 243.202C45.8914 243.202 42.9453 242.82 40.3094 242.244C39.8149 242.135 39.0288 241.989 38.2067 241.836L38.1955 241.835L38.1855 241.833L38.1755 241.831C36.1687 241.458 33.9589 241.047 35.1859 241.047C39.5196 241.047 44.6893 240.271 48.6693 238.113C50.8305 236.942 52.6717 235.517 54.4692 233.623C43.0225 236.538 34.1868 234.179 31.1996 232.635C29.3535 231.365 26.8497 228.654 26.8497 228.654C26.8497 228.654 33.5279 225.416 34.4621 225.062C42.3947 222.054 49.9424 217.68 56.547 211.352C58.0967 209.867 59.6687 208.32 61.2283 206.715C57.3069 207.885 52.146 207.895 50.63 207.673C49.3594 208.067 48.592 207.896 47.2193 207.537L46.0097 207.226C43.6641 206.629 41.2337 206.01 39.04 204.901C37.6399 204.194 38.1394 204.161 38.9616 204.109L38.9648 204.108C39.2904 204.087 39.6652 204.063 39.993 203.992C41.874 203.521 46.0757 202.271 47.8421 201.038C47.8421 201.038 43.2094 201.477 41.2038 201.219C34.7449 200.392 28.5525 197.378 23.0665 193.152C20.5614 191.222 19.5238 188.451 19.5238 188.451C19.5238 188.451 28.8278 188.975 31.6855 188.653C36.2173 188.142 40.7566 187.616 44.9446 185.13C48.9819 182.734 53.9361 179.397 57.1587 175.404C57.6034 174.853 57.0067 174.903 56.6043 174.936L56.6016 174.936C56.518 174.943 56.4443 174.949 56.3888 174.949C54.3546 174.949 52.1173 174.66 50.1168 174.222C49.7343 174.139 49.1277 174.026 48.4936 173.908C46.9714 173.625 45.2972 173.313 46.2289 173.313C49.5176 173.313 53.4415 172.724 56.4623 171.086C58.1029 170.197 59.4993 169.115 60.8634 167.677C52.1771 169.89 45.4703 168.1 43.2032 166.927C41.8018 165.963 39.9021 163.905 39.9021 163.905C39.9021 163.905 44.9708 161.447 45.6783 161.178C51.7 158.894 57.4277 155.574 62.4404 150.77C67.0794 146.325 71.9637 141.15 75.6086 135.431C77.4037 132.613 78.6631 129.23 79.8913 125.928Z" fill="#19252D"/>
<path d="M218.711 191.068H234.625V327.001L218.711 320.832V191.068Z" fill="#19CBCB"/>
<path d="M249.945 191.068H234.031V327.001L249.945 320.832V191.068Z" fill="#00AEB3"/>
<path d="M223.015 60.513C227.119 55.2484 229.632 48.6116 232.5 42.6426V160.385H204.025C198.386 164.619 182.723 164.806 179.072 164.37C176.835 164.936 175.485 164.691 173.071 164.174C168.31 163.156 163.21 162.255 158.681 160.385C155.244 158.965 158.319 159.437 160.359 159.078C163.667 158.401 171.059 156.604 174.168 154.831C174.168 154.831 166.017 155.462 162.488 155.092C151.126 153.902 140.231 149.569 130.58 143.494C126.172 140.72 124.347 136.736 124.347 136.736C124.347 136.736 140.717 137.488 145.744 137.026C153.717 136.292 161.702 135.536 169.07 131.962C176.173 128.517 184.889 123.72 190.558 117.979C191.502 117.022 189.772 117.326 189.203 117.326C185.623 117.326 181.689 116.909 178.168 116.28C175.884 115.872 169.008 114.974 171.329 114.974C177.114 114.974 184.017 114.126 189.332 111.772C192.218 110.493 194.675 108.938 197.075 106.871C181.792 110.053 169.994 107.478 166.005 105.793C163.54 104.406 160.198 101.448 160.198 101.448C160.198 101.448 169.115 97.9141 170.361 97.5279C180.954 94.2442 191.031 89.4708 199.849 82.5651C208.011 76.1743 216.604 68.7356 223.015 60.513Z" fill="#19CBCB"/>
<path d="M227.198 10.9733C229.769 7.74058 231.343 3.66524 233.139 0V72.2992H215.305C211.774 74.8991 201.964 75.0141 199.677 74.7467C198.276 75.0943 197.431 74.9434 195.919 74.6263C192.937 74.0011 189.743 73.4477 186.907 72.2992C184.754 71.4275 186.68 71.7174 187.957 71.4968C190.029 71.0812 194.659 69.9777 196.606 68.8889C196.606 68.8889 191.501 69.2764 189.291 69.0494C182.175 68.3186 175.352 65.6582 169.307 61.9278C166.547 60.2242 165.403 57.7777 165.403 57.7777C165.403 57.7777 175.656 58.2399 178.804 57.9557C183.797 57.5051 188.798 57.0409 193.413 54.8463C197.862 52.7309 203.32 49.7852 206.871 46.2603C207.462 45.6728 206.378 45.8591 206.022 45.8591C203.78 45.8591 201.316 45.6034 199.111 45.2171C197.68 44.9664 193.374 44.4147 194.828 44.4147C198.451 44.4147 202.774 43.8945 206.103 42.4487C207.91 41.6636 209.449 40.7086 210.952 39.4396C201.381 41.393 193.992 39.8122 191.494 38.7776C189.95 37.926 187.856 36.1095 187.856 36.1095C187.856 36.1095 193.441 33.9394 194.221 33.7022C200.856 31.6859 207.167 28.7548 212.69 24.5143C217.801 20.5901 223.183 16.0223 227.198 10.9733Z" fill="#19CBCB"/>
<path d="M239.079 10.9733C236.509 7.74058 234.935 3.66524 233.139 0V72.2992H250.972C254.504 74.8991 264.313 75.0141 266.6 74.7467C268.001 75.0943 268.847 74.9434 270.359 74.6263C273.34 74.0011 276.535 73.4477 279.371 72.2992C281.523 71.4275 279.598 71.7174 278.32 71.4968C276.248 71.0812 271.619 69.9777 269.672 68.8889C269.672 68.8889 274.776 69.2764 276.986 69.0494C284.102 68.3186 290.926 65.6582 296.97 61.9278C299.731 60.2242 300.874 57.7777 300.874 57.7777C300.874 57.7777 290.622 58.2399 287.473 57.9557C282.48 57.5051 277.479 57.0409 272.864 54.8463C268.416 52.7309 262.957 49.7852 259.407 46.2603C258.815 45.6728 259.899 45.8591 260.255 45.8591C262.497 45.8591 264.961 45.6034 267.166 45.2171C268.597 44.9664 272.903 44.4147 271.45 44.4147C267.827 44.4147 263.503 43.8945 260.175 42.4487C258.367 41.6636 256.828 40.7086 255.325 39.4396C264.896 41.393 272.286 39.8122 274.784 38.7776C276.328 37.926 278.421 36.1095 278.421 36.1095C278.421 36.1095 272.836 33.9394 272.056 33.7022C265.422 31.6859 259.11 28.7548 253.587 24.5143C248.476 20.5901 243.094 16.0223 239.079 10.9733Z" fill="#00AEB3"/>
<path d="M220.002 140.61C225.41 133.676 228.722 124.934 232.5 117.071V272.163H223.594C223.594 272.163 163.382 278.476 154.198 277.155C145.013 275.834 141.205 274.626 135.238 272.163C130.71 270.293 134.761 270.915 137.449 270.442C141.807 269.55 151.547 267.183 155.643 264.847C155.643 264.847 144.904 265.678 140.255 265.192C125.284 263.624 110.929 257.917 98.2127 249.915C92.4055 246.26 90 241.012 90 241.012C90 241.012 111.568 242.004 118.192 241.394C128.697 240.427 139.218 239.432 148.926 234.724C158.285 230.186 169.768 223.867 177.238 216.306C178.483 215.046 176.202 215.445 175.452 215.445C170.736 215.445 165.552 214.897 160.914 214.068C157.904 213.53 148.845 212.347 151.902 212.347C159.525 212.347 168.62 211.231 175.622 208.13C179.425 206.445 182.663 204.397 185.825 201.675C165.689 205.865 150.144 202.474 144.888 200.254C141.64 198.428 137.236 194.531 137.236 194.531C137.236 194.531 148.985 189.876 150.627 189.367C164.584 185.042 177.861 178.754 189.48 169.658C200.233 161.24 211.556 151.441 220.002 140.61Z" fill="#19CBCB"/>
<path d="M241.985 60.513C237.881 55.2484 235.368 48.6116 232.5 42.6426V160.385H260.975C266.614 164.619 282.277 164.806 285.928 164.37C288.165 164.936 289.515 164.691 291.929 164.174C296.69 163.156 301.79 162.255 306.319 160.385C309.756 158.965 306.681 159.437 304.641 159.078C301.333 158.401 293.941 156.604 290.832 154.831C290.832 154.831 298.983 155.462 302.512 155.092C313.874 153.902 324.769 149.569 334.42 143.494C338.828 140.72 340.653 136.736 340.653 136.736C340.653 136.736 324.283 137.488 319.256 137.026C311.283 136.292 303.298 135.536 295.93 131.962C288.827 128.517 280.111 123.72 274.442 117.979C273.498 117.022 275.228 117.326 275.797 117.326C279.377 117.326 283.311 116.909 286.832 116.28C289.116 115.872 295.992 114.974 293.671 114.974C287.886 114.974 280.983 114.126 275.668 111.772C272.782 110.493 270.325 108.938 267.925 106.871C283.208 110.053 295.006 107.478 298.995 105.793C301.46 104.406 304.802 101.448 304.802 101.448C304.802 101.448 295.885 97.9141 294.639 97.5279C284.046 94.2442 273.969 89.4708 265.151 82.5651C256.989 76.1743 248.396 68.7356 241.985 60.513Z" fill="#00AEB3"/>
<path d="M244.998 140.609C239.59 133.675 236.278 124.933 232.5 117.07V272.162H244.998C252.427 277.739 298.084 277.986 302.896 277.412C305.842 278.158 307.621 277.834 310.802 277.154C317.075 275.813 323.795 274.625 329.762 272.162C334.29 270.292 330.239 270.914 327.551 270.441C323.193 269.549 313.453 267.182 309.357 264.846C309.357 264.846 320.096 265.677 324.745 265.191C339.716 263.623 354.071 257.916 366.787 249.914C372.595 246.259 375 241.011 375 241.011C375 241.011 353.432 242.003 346.808 241.393C336.303 240.426 325.782 239.431 316.074 234.723C306.715 230.185 295.232 223.866 287.762 216.305C286.517 215.045 288.798 215.444 289.548 215.444C294.264 215.444 299.448 214.896 304.086 214.067C307.096 213.529 316.155 212.346 313.098 212.346C305.475 212.346 296.38 211.23 289.378 208.129C285.575 206.444 282.337 204.396 279.175 201.674C299.311 205.864 314.856 202.473 320.112 200.253C323.36 198.427 327.764 194.53 327.764 194.53C327.764 194.53 316.015 189.875 314.373 189.366C300.416 185.041 287.139 178.753 275.52 169.657C264.767 161.239 253.444 151.44 244.998 140.609Z" fill="#00AEB3"/>
<path d="M160.868 270.858C160.039 271.711 160.522 274.36 160.868 275.578L163.161 276.492C164.995 277.223 165.207 275.578 165.084 274.665C164.887 274.411 164.226 273.386 163.161 271.315C161.829 268.727 161.903 269.792 160.868 270.858Z" fill="#FF8C73"/>
<path d="M154.322 297.233C155.032 297.591 163.691 294.917 164.195 294.991C167.376 296.437 173.472 299.467 172.407 300.015C171.075 300.7 164.195 300.244 162.568 300.244C161.266 300.244 157.215 301.005 155.352 301.386C155.195 301.618 154.965 301.856 154.653 302.071C153.543 302.832 152.803 302.451 152.507 301.842C152.211 301.233 152.507 301.31 152.137 301.081C151.767 300.853 151.472 300.777 151.102 300.244C150.806 299.817 151.225 299.457 151.472 299.33C151.422 299.203 151.279 298.843 151.102 298.417C150.924 297.99 151.472 297.833 151.768 297.808C151.866 297.478 152.152 296.742 152.507 296.437C152.951 296.057 153.987 296.666 154.283 297.199C154.294 297.208 154.307 297.219 154.322 297.233Z" fill="#FF8C73"/>
<path d="M156.503 280.907C157.625 277.028 163.308 272.99 167.895 273.98C175.736 275.672 174.029 280.728 185.649 282.126C197.041 283.496 208.508 319.581 198.891 323.768C189.274 327.955 176.624 324.606 176.254 324.377C175.884 324.149 168.709 316.079 170.336 308.847C171.316 304.494 171.298 301.005 166.711 299.102C163.042 297.579 164.147 294.569 163.678 293.254C162.058 293.484 160.352 293.237 157.982 293.088C157.161 293.036 156.508 292.879 155.996 292.656C155.806 292.619 155.632 292.51 155.515 292.403C154.242 291.594 154.236 290.297 154.801 289.662C155.615 288.748 155.55 284.199 156.503 280.907Z" fill="#FF8C73"/>
<path d="M166.895 290.881C166.6 292.34 164.488 292.932 163.653 293.236C164.316 294.299 161.811 296.274 166.895 299.312L166.944 299.341C169.877 301.094 171.529 302.08 169.916 308.199C168.295 314.351 173.085 323.401 176.032 324.225C177.481 324.63 180.896 325.425 182.959 325.364C185.538 325.288 187.012 324.073 188.043 322.706C189.075 321.339 183.99 315.946 185.169 312.072C186.348 308.199 189.738 305.009 188.927 304.249C188.117 303.49 183.401 304.173 184.359 301.743C185.317 299.312 171.316 288.603 170.874 288.527C170.432 288.451 167.264 289.058 166.895 290.881Z" fill="#FFECDB"/>
<path d="M182.69 305.498C184.88 299.956 185.731 300.554 188.46 299.636C192.307 298.341 196.556 300.984 199.113 305.498C201.968 310.54 200.962 316.385 199.113 318.669C197.633 320.496 195.636 324.049 194.822 325.597C188.066 325.901 174.523 326.327 174.405 325.597C174.257 324.683 175.736 324.835 177.216 324.455C178.695 324.074 183.652 323.389 184.17 322.551C184.688 321.714 179.953 312.426 182.69 305.498Z" fill="#FF8C73"/>
<path d="M154.249 298.287C153.302 295.668 155.137 293.947 156.246 293.643C157.356 293.114 158.186 293.324 160.759 295.241C162.904 296.84 164.556 301.611 165.197 303.692C165.173 303.793 164.384 303.996 161.425 303.996C157.726 303.996 155.433 301.56 154.249 298.287Z" fill="#FFDBBA" stroke="#FF8C73" stroke-width="2"/>
<path d="M173.072 298.263C175.084 296.558 173.072 290.65 171.814 287.91C172.011 285.879 173.885 283.785 175.365 281.897C177.214 279.537 184.834 287.531 185.721 287.911C186.432 288.216 186.338 288.341 186.757 289.584C187.177 292.173 186.713 298.248 181.505 301.841C174.995 306.333 168.929 304.582 167.82 304.582C166.71 304.582 165.452 305.876 163.529 306.485C161.973 306.978 159.46 307.018 158.35 306.485C157.241 305.952 158.424 305.267 159.534 305.572C161.116 305.572 161.72 304.924 162.228 304.888C161.548 304.888 157.685 304.833 157.685 304.049C157.685 303.318 160.742 303.237 162.271 303.288C160.841 303.237 157.922 302.877 157.685 301.841C157.389 300.547 158.942 301.689 160.792 301.841C162.641 301.994 164.047 301.156 164.047 300.319C164.047 299.481 164.86 299.177 165.452 300.319C166.044 301.461 170.557 300.395 173.072 298.263Z" fill="#FF8C73"/>
<path d="M165.01 276.112C164.862 275.351 167.525 271.392 167.673 271.24C170.114 267.966 171.298 274.133 171.372 275.731C171.446 277.33 172.186 281.289 171.52 282.126C170.854 282.964 169.449 280.908 168.487 279.233C167.525 277.558 165.158 276.873 165.01 276.112Z" fill="#FF8C73" stroke="#FF8C73"/>
<path d="M169.005 278.014C167.97 276.492 167.378 275.045 167.008 273.599C167.18 272.812 167.822 271.132 169.005 270.706C169.967 270.401 170.707 273.492 170.707 274.36C170.707 275.273 171.077 279.385 170.633 280.146C170.189 280.907 170.041 279.537 169.005 278.014Z" fill="#FFDBBA"/>
<path d="M154.727 291.566C155.294 291.921 156.591 292.418 157.242 291.566C157.893 290.713 157.858 290.348 157.76 290.271" stroke="#E16161"/>
<ellipse cx="163.455" cy="282.659" rx="1.33156" ry="1.29421" fill="#E16161"/>
<path d="M162.162 283.793C162.063 283.387 162.132 282.087 162.606 281.661C163.198 281.128 163.898 281.212 164.416 281.661" stroke="#FBC28E"/>
<ellipse cx="163.603" cy="281.973" rx="0.295903" ry="0.30452" fill="#FFDBBA"/>
<path d="M190.383 286.846C190.605 284.562 191.404 279.431 192.824 277.177C194.244 274.924 194.353 276.238 194.23 277.177C194.476 275.325 195.724 271.391 198.742 270.478C202.515 269.336 199.852 273.371 200.222 272.914C200.591 272.457 206.14 265.758 214.573 267.204C223.006 268.651 232.549 272.914 233.659 284.79C234.688 295.81 233.659 292.632 231.439 292.175C229.22 291.718 239.503 298.265 232.549 306.64C228.877 311.061 219.073 321.549 217.606 316.613C214.869 307.401 226.405 286.805 218.272 289.13C214.277 290.272 216.496 293.165 217.606 295.753C218.494 297.824 217.039 297.631 216.2 297.276C217.113 297.732 218.804 299.027 218.272 300.549C217.824 301.83 217.443 301.663 217.106 301.231C217.536 302.122 217.896 303.67 216.644 305.269C214.499 308.01 209.395 322.703 200.222 321.866C192.883 321.196 192.799 299.027 190.383 286.846Z" fill="#FF8C73"/>
</svg>
