<svg width="198" height="40" viewBox="0 0 198 40" fill="none" xmlns="http://www.w3.org/2000/svg">
<rect x="0.5" y="0.5" width="197" height="39" rx="3.5" fill="url(#paint0_linear)" stroke="#00BCBC"/>
<path d="M53.6952 13.4V26H61.3812V23.84H56.0352V13.4H53.6952ZM71.0856 21.266C71.0856 19.286 69.8796 16.784 66.8556 16.784C63.7416 16.784 62.4996 19.322 62.4996 21.464C62.4996 23.606 63.7416 26.144 66.8556 26.144C69.0516 26.144 70.2756 25.1 70.9776 23.498L69.1776 22.832C68.6376 23.768 68.0076 24.236 66.9816 24.236C65.5956 24.236 64.8936 23.192 64.8396 22.184H71.0856V21.266ZM66.8556 18.692C68.0436 18.692 68.6016 19.52 68.7996 20.42H64.8936C65.0556 19.556 65.7216 18.692 66.8556 18.692ZM74.8369 19.736C75.1249 18.89 75.7729 18.692 76.4029 18.692C77.2309 18.692 77.9869 19.016 77.9869 20.024V20.42H76.4749C74.1889 20.42 72.6049 21.59 72.6049 23.39C72.6049 25.19 73.8109 26.144 75.3589 26.144C76.6549 26.144 77.5189 25.622 78.1489 24.848L78.3829 26H80.2189V20.582C80.2189 17.684 78.5629 16.784 76.4029 16.784C74.5489 16.784 73.2349 17.81 72.9469 19.304L74.8369 19.736ZM74.9449 23.354C74.9449 22.544 75.5389 22.184 76.4929 22.184H77.9869V22.364C77.9869 23.534 76.9069 24.236 75.8809 24.236C75.2509 24.236 74.9449 23.786 74.9449 23.354ZM84.5929 26V22.778C84.5929 19.844 85.7269 18.782 87.0229 18.782C87.4009 18.782 87.6889 18.872 87.9589 19.034L88.3729 16.964C88.0129 16.856 87.6709 16.784 87.2749 16.784C86.2489 16.784 85.2409 17.342 84.5929 18.404V16.928H82.3609V26H84.5929ZM89.9546 16.928V26H92.1866V22.382C92.1866 19.988 93.1766 18.692 94.2566 18.692C95.0126 18.692 95.5526 19.106 95.5526 20.186V26H97.7846V19.52C97.7846 17.702 96.6146 16.784 94.9946 16.784C93.8246 16.784 92.8526 17.432 92.1866 18.386V16.928H89.9546ZM105.164 26H107.504V18.224L109.916 24.848H111.608L114.02 18.224V26H116.36V13.4H113.732L110.762 21.266L107.792 13.4H105.164V26ZM118.556 21.464C118.556 24.092 120.248 26.144 123.164 26.144C126.08 26.144 127.772 24.092 127.772 21.464C127.772 18.836 126.08 16.784 123.164 16.784C120.248 16.784 118.556 18.836 118.556 21.464ZM120.896 21.464C120.896 19.97 121.724 18.692 123.164 18.692C124.604 18.692 125.432 19.97 125.432 21.464C125.432 22.958 124.604 24.236 123.164 24.236C121.724 24.236 120.896 22.958 120.896 21.464ZM131.966 26V22.778C131.966 19.844 133.1 18.782 134.396 18.782C134.774 18.782 135.062 18.872 135.332 19.034L135.746 16.964C135.386 16.856 135.044 16.784 134.648 16.784C133.622 16.784 132.614 17.342 131.966 18.404V16.928H129.734V26H131.966ZM145.283 21.266C145.283 19.286 144.077 16.784 141.053 16.784C137.939 16.784 136.697 19.322 136.697 21.464C136.697 23.606 137.939 26.144 141.053 26.144C143.249 26.144 144.473 25.1 145.175 23.498L143.375 22.832C142.835 23.768 142.205 24.236 141.179 24.236C139.793 24.236 139.091 23.192 139.037 22.184H145.283V21.266ZM141.053 18.692C142.241 18.692 142.799 19.52 142.997 20.42H139.091C139.253 19.556 139.919 18.692 141.053 18.692Z" fill="#00BCBC"/>
<defs>
<linearGradient id="paint0_linear" x1="99" y1="0" x2="99" y2="40" gradientUnits="userSpaceOnUse">
<stop stop-color="white"/>
<stop offset="1" stop-color="#EDFFFC"/>
</linearGradient>
</defs>
</svg>
