<svg width="35" height="30" viewBox="0 0 35 30" fill="none" xmlns="http://www.w3.org/2000/svg">
<g id="twitter_icon">
<g id="Group">
<g id="Group_2">
<path id="Vector" d="M34.9321 4.06676C33.6464 4.6465 32.2668 5.03968 30.8174 5.21521C32.2974 4.31333 33.4303 2.88282 33.9672 1.18349C32.579 2.01869 31.0466 2.62515 29.4138 2.95391C28.1063 1.5345 26.2465 0.650391 24.1837 0.650391C20.2262 0.650391 17.0174 3.91574 17.0174 7.94077C17.0174 8.51163 17.0807 9.06919 17.2029 9.60234C11.2481 9.29798 5.96786 6.39473 2.43383 1.98314C1.81607 3.05829 1.46464 4.31106 1.46464 5.64835C1.46464 8.17846 2.7307 10.4109 4.65162 11.717C3.47723 11.677 2.3727 11.3483 1.40573 10.8018V10.8929C1.40573 14.4248 3.87672 17.3724 7.15315 18.0433C6.55286 18.2077 5.91986 18.2988 5.26499 18.2988C4.80226 18.2988 4.35476 18.2521 3.916 18.1633C4.8284 21.0621 7.47405 23.1701 10.6086 23.2279C8.15728 25.1827 5.06636 26.3444 1.70916 26.3444C1.13073 26.3444 0.560969 26.3089 0 26.2445C3.17169 28.317 6.93711 29.5254 10.9841 29.5254C24.1663 29.5254 31.3719 18.4143 31.3719 8.77824L31.3479 7.83419C32.7558 6.8123 33.9738 5.5284 34.9321 4.06676Z" fill="#0DEFE1"/>
</g>
</g>
</g>
</svg>
