<?xml version="1.0" encoding="UTF-8"?>
<svg version="1.1" xmlns="http://www.w3.org/2000/svg" xmlns:xlink="http://www.w3.org/1999/xlink">
<defs>
<linearGradient id="paint0_linear" x1="99" y1="0" x2="99" y2="40" gradientUnits="userSpaceOnUse"><stop stop-color="#fff"/><stop offset="1" stop-color="#EDFFFC"/></linearGradient>
<linearGradient id="paint0_linear" x1="61.574" y1="14.146" x2="82.223" y2="14.146" gradientUnits="userSpaceOnUse"><stop stop-color="#20FFAF"/><stop offset="1" stop-color="#01DACC"/></linearGradient><linearGradient id="paint1_linear" x1="73.526" y1="3.75" x2="67.239" y2="3.75" gradientUnits="userSpaceOnUse"><stop stop-color="#20FFAF"/><stop offset="1" stop-color="#01DACC"/></linearGradient><linearGradient id="paint2_linear" x1="65.73" y1="27.44" x2="65.73" y2="78.416" gradientUnits="userSpaceOnUse"><stop stop-color="#20FFAF"/><stop offset="1" stop-color="#01DACC"/></linearGradient><linearGradient id="paint3_linear" x1="10.819" y1="4.63" x2="10.819" y2="91.652" gradientUnits="userSpaceOnUse"><stop stop-color="#20FFAF"/><stop offset="1" stop-color="#01DACC"/></linearGradient><linearGradient id="paint4_linear" x1="2.403" y1="4.63" x2="2.403" y2="91.652" gradientUnits="userSpaceOnUse"><stop stop-color="#20FFAF"/><stop offset="1" stop-color="#01DACC"/></linearGradient><linearGradient id="paint5_linear" x1="5.956" y1="53.264" x2="4.297" y2="91.612" gradientUnits="userSpaceOnUse"><stop stop-color="#20FFAF"/><stop offset="1" stop-color="#01DACC"/></linearGradient>
<linearGradient id="paint0_linear" x1="47.621" y1="188.5" x2="47.621" y2="529.377" gradientUnits="userSpaceOnUse"><stop stop-color="#33303B"/><stop offset="1" stop-color="#33303B"/></linearGradient>
</defs>
<symbol id="i-learnmorebutton" viewBox="0 0 198 40" fill="none" xmlns="http://www.w3.org/2000/svg"><rect x=".5" y=".5" width="197" height="39" rx="3.5" fill="url(#paint0_linear)" stroke="#00BCBC"/><path d="M53.695 13.4V26h7.686v-2.16h-5.346V13.4h-2.34zm17.39 7.866c0-1.98-1.205-4.482-4.23-4.482-3.113 0-4.355 2.538-4.355 4.68s1.242 4.68 4.356 4.68c2.196 0 3.42-1.044 4.122-2.646l-1.8-.666c-.54.936-1.17 1.404-2.196 1.404-1.386 0-2.088-1.044-2.142-2.052h6.246v-.918zm-4.23-2.574c1.189 0 1.747.828 1.945 1.728h-3.906c.162-.864.828-1.728 1.962-1.728zm7.982 1.044c.288-.846.936-1.044 1.566-1.044.828 0 1.584.324 1.584 1.332v.396h-1.512c-2.286 0-3.87 1.17-3.87 2.97 0 1.8 1.206 2.754 2.754 2.754 1.296 0 2.16-.522 2.79-1.296L78.383 26h1.836v-5.418c0-2.898-1.656-3.798-3.816-3.798-1.854 0-3.168 1.026-3.456 2.52l1.89.432zm.108 3.618c0-.81.594-1.17 1.548-1.17h1.494v.18c0 1.17-1.08 1.872-2.106 1.872-.63 0-.936-.45-.936-.882zM84.593 26v-3.222c0-2.934 1.134-3.996 2.43-3.996.378 0 .666.09.936.252l.414-2.07a3.692 3.692 0 00-1.098-.18c-1.026 0-2.034.558-2.682 1.62v-1.476H82.36V26h2.232zm5.362-9.072V26h2.232v-3.618c0-2.394.99-3.69 2.07-3.69.756 0 1.296.414 1.296 1.494V26h2.232v-6.48c0-1.818-1.17-2.736-2.79-2.736-1.17 0-2.142.648-2.808 1.602v-1.458h-2.232zM105.164 26h2.34v-7.776l2.412 6.624h1.692l2.412-6.624V26h2.34V13.4h-2.628l-2.97 7.866-2.97-7.866h-2.628V26zm13.392-4.536c0 2.628 1.692 4.68 4.608 4.68 2.916 0 4.608-2.052 4.608-4.68 0-2.628-1.692-4.68-4.608-4.68-2.916 0-4.608 2.052-4.608 4.68zm2.34 0c0-1.494.828-2.772 2.268-2.772s2.268 1.278 2.268 2.772c0 1.494-.828 2.772-2.268 2.772s-2.268-1.278-2.268-2.772zM131.966 26v-3.222c0-2.934 1.134-3.996 2.43-3.996.378 0 .666.09.936.252l.414-2.07a3.692 3.692 0 00-1.098-.18c-1.026 0-2.034.558-2.682 1.62v-1.476h-2.232V26h2.232zm13.317-4.734c0-1.98-1.206-4.482-4.23-4.482-3.114 0-4.356 2.538-4.356 4.68s1.242 4.68 4.356 4.68c2.196 0 3.42-1.044 4.122-2.646l-1.8-.666c-.54.936-1.17 1.404-2.196 1.404-1.386 0-2.088-1.044-2.142-2.052h6.246v-.918zm-4.23-2.574c1.188 0 1.746.828 1.944 1.728h-3.906c.162-.864.828-1.728 1.962-1.728z" fill="#00BCBC"/></symbol>
<symbol id="i-fb" viewBox="0 0 33 33" fill="none" xmlns="http://www.w3.org/2000/svg"><path d="M32.757 5.5c0-2.89-2.59-5.5-5.46-5.5H5.46C2.59 0 0 2.61 0 5.5v22C0 30.39 2.59 33 5.46 33h10.918V20.533h-4.003v-5.5h4.003V12.89c0-3.695 2.755-7.023 6.142-7.023h4.413v5.5H22.52c-.483 0-1.046.59-1.046 1.475v2.191h5.46v5.5h-5.46V33h5.823c2.87 0 5.46-2.61 5.46-5.5v-22z" fill="#0DEFE1"/></symbol>
<symbol id="i-insta" viewBox="0 0 33 33" fill="none" xmlns="http://www.w3.org/2000/svg"><path d="M23.942 0H8.864C3.976 0 0 4 0 8.917v15.167C0 29 3.976 33 8.864 33h15.078c4.888 0 8.864-4 8.864-8.916V8.917C32.806 4 28.83 0 23.942 0zm6.214 24.084c0 3.446-2.788 6.25-6.214 6.25H8.864c-3.426 0-6.214-2.804-6.214-6.25V8.917c0-3.447 2.788-6.251 6.214-6.251h15.078c3.426 0 6.214 2.804 6.214 6.25v15.168z" fill="#0DEFE1"/><path d="M23.746 15.349a7.364 7.364 0 00-2.075-4.147 7.29 7.29 0 00-4.123-2.088 7.309 7.309 0 00-2.158 0 7.301 7.301 0 00-4.83 2.912 7.384 7.384 0 00-1.368 5.494 7.36 7.36 0 002.895 4.858 7.273 7.273 0 005.461 1.376 7.3 7.3 0 004.83-2.912 7.383 7.383 0 001.368-5.493zm-6.586 5.768a4.653 4.653 0 01-3.494-.88 4.707 4.707 0 01-1.852-3.108 4.723 4.723 0 01.876-3.515 4.67 4.67 0 013.78-1.914 4.693 4.693 0 014.655 4.04c.38 2.582-1.399 4.994-3.965 5.377zM25.633 7.216a1.33 1.33 0 00-.937-.39 1.33 1.33 0 00-1.325 1.332 1.33 1.33 0 001.325 1.333 1.33 1.33 0 001.326-1.333c0-.35-.142-.694-.389-.942z" fill="#0DEFE1"/></symbol>
<symbol id="i-medium" viewBox="0 0 44 33" fill="none" xmlns="http://www.w3.org/2000/svg"><path d="M43.746 4.715h-2.413c-.629 0-2.274.687-2.274 1.271V27.22c0 .586 1.645 1.067 2.274 1.067h2.413V33H28.123v-4.714h3.125v-22h-.544L23.184 33H17.36L9.937 6.285h-.563v22h3.124V33H0v-4.714h1.733c.681 0 1.391-.48 1.391-1.067V5.986c0-.585-.71-1.271-1.39-1.271H0V0h16.198l5.288 18.857h.143L26.969 0h16.777v4.715z" fill="#0DEFE1"/></symbol>
<symbol id="i-nwplus" viewBox="0 0 82 93" fill="none" xmlns="http://www.w3.org/2000/svg"><path fill-rule="evenodd" clip-rule="evenodd" d="M60.01 10.78h21.107v6.023H60.01v-6.024z" fill="url(#paint0_linear)"/><path fill-rule="evenodd" clip-rule="evenodd" d="M73.86 0v21.874l-6.596 6.34V6.657L73.86 0z" fill="url(#paint1_linear)"/><path fill-rule="evenodd" clip-rule="evenodd" d="M63.97 37.408l13.234-12.68V78.21l-13.233-6.657V37.408z" fill="url(#paint2_linear)"/><path fill-rule="evenodd" clip-rule="evenodd" d="M.65 17.753V0L77.16 73.547V91.3L.65 17.753z" fill="url(#paint3_linear)"/><path fill-rule="evenodd" clip-rule="evenodd" d="M.65 0L13.84 12.68v65.94L.65 91.3V0z" fill="url(#paint4_linear)"/><path fill-rule="evenodd" clip-rule="evenodd" d="M.651 91.299l32.32-30.434-9.234-8.876L.857 72.78.65 91.299z" fill="url(#paint5_linear)"/></symbol>
<symbol id="i-topbaclground" xmlns="http://www.w3.org/2000/svg" viewBox="0 0 1440 699"><linearGradient id="a" gradientUnits="userSpaceOnUse" x1="720" y1="750" x2="720" y2="-3.015" gradientTransform="matrix(1 0 0 -1 0 750)"><stop offset="0" stop-color="#33303b"/><stop offset="1" stop-color="#33303b"/></linearGradient><path d="M127 507.3C72.6 475.1 0 406.7 0 406.7V0h1440v691c-57.5 26-156.6-22-285-108-138-92.5-355.5-77.7-431-66.5-120.3 17.8-396.4 109.7-597-9.2z" fill="url(#a)"/></symbol>
<symbol id="i-topbgmobile" viewBox="0 0 375 505" fill="none" xmlns="http://www.w3.org/2000/svg"><path d="M-241.978 411.35C-268.566 395.591-304 362.189-304 362.189V-13h703.242v514.052c-28.081 12.698-76.483-10.743-139.183-52.757-67.394-45.16-173.613-37.93-210.485-32.462-58.756 8.714-193.594 53.577-291.552-4.483z" fill="url(#paint0_linear)"/></symbol>
<symbol id="i-twitter" viewBox="0 0 35 30" fill="none" xmlns="http://www.w3.org/2000/svg"><path d="M34.932 4.067c-1.286.58-2.665.973-4.115 1.148a7.301 7.301 0 003.15-4.032 14.295 14.295 0 01-4.553 1.77A7.089 7.089 0 0024.184.65c-3.958 0-7.167 3.266-7.167 7.29 0 .572.064 1.13.186 1.662-5.955-.304-11.235-3.207-14.77-7.619a7.335 7.335 0 00-.968 3.665 7.323 7.323 0 003.187 6.069 7.072 7.072 0 01-3.246-.915v.09c0 3.533 2.47 6.48 5.747 7.151a7.14 7.14 0 01-1.888.256c-.463 0-.91-.047-1.349-.136.912 2.9 3.558 5.007 6.693 5.065a14.22 14.22 0 01-8.9 3.116c-.578 0-1.148-.035-1.709-.1a20.002 20.002 0 0010.984 3.281c13.182 0 20.388-11.11 20.388-20.747l-.024-.944a14.451 14.451 0 003.584-3.767z" fill="#0DEFE1"/></symbol>
</svg>